<svg width="133" height="118" viewBox="0 0 133 118" fill="none" xmlns="http://www.w3.org/2000/svg">
<g filter="url(#filter0_d_1_189)">
<path fill-rule="evenodd" clip-rule="evenodd" d="M115.702 -35.1803C118.36 -45.6738 126.755 -54.9192 133.516 -61.6636L133.952 -61.2766C127.188 -54.5295 118.895 -45.3747 116.275 -35.034C115.582 -32.2991 115.287 -29.4823 115.521 -26.605C118.411 -36.7373 126.528 -45.6571 133.1 -52.2134L133.536 -51.8264C126.772 -45.0792 118.479 -35.9245 115.859 -25.5838C115.807 -25.3807 115.758 -25.1772 115.711 -24.9733C115.846 -24.0846 116.033 -23.1905 116.276 -22.2918C119.957 -30.4756 126.585 -37.6708 132.119 -43.1907L132.554 -42.8038C126.868 -37.1313 120.101 -29.7572 116.532 -21.4073C116.776 -20.6226 117.063 -19.8345 117.396 -19.0434C121.129 -25.0805 126.126 -30.4216 130.453 -34.7382L130.889 -34.3512C126.47 -29.9435 121.399 -24.5082 117.683 -18.386C117.954 -17.7873 118.251 -17.1868 118.577 -16.5845C121.597 -20.4939 124.951 -24.0144 127.978 -27.0338L128.413 -26.6468C125.328 -23.5689 121.924 -19.9899 118.886 -16.0259C119.086 -15.6739 119.295 -15.3213 119.515 -14.9682C121.233 -16.8699 122.961 -18.6436 124.593 -20.2715L125.028 -19.8845C123.356 -18.2162 121.59 -16.4008 119.839 -14.4565C119.875 -14.4009 119.912 -14.3453 119.948 -14.2896C120.055 -14.3969 120.162 -14.5036 120.268 -14.6096L120.704 -14.2226L120.462 -13.9816L120.278 -13.7965C123.005 -9.79291 127.019 -5.72853 132.646 -1.65868C140.506 4.02601 148.129 7.43149 155.323 9.50844C155.932 2.82608 156.084 -4.88487 155.736 -13.8046L156.324 -13.8056C156.674 -4.82925 156.52 2.93701 155.901 9.67256C165.525 12.3654 174.366 12.7111 181.957 13.0079C183.201 13.0566 184.411 13.1039 185.585 13.16C192.477 13.4893 198.221 14.1213 202.255 17.2003C206.309 20.2947 208.56 25.7926 208.674 35.6499L208.085 35.636C207.972 25.8279 205.729 20.5523 201.894 17.6248C198.038 14.6818 192.497 14.0432 185.576 13.7126C184.404 13.6566 183.194 13.6094 181.95 13.5609C174.38 13.2657 165.514 12.9199 155.848 10.2291C155.549 13.3294 155.149 16.2088 154.654 18.885C164.6 21.7958 173.732 22.1528 181.541 22.4582C182.784 22.5068 183.995 22.5541 185.169 22.6102C192.061 22.9395 197.805 23.5716 201.839 26.6505C205.893 29.745 208.144 35.2428 208.258 45.1001L207.669 45.0862C207.556 35.2781 205.313 30.0026 201.478 27.075C197.622 24.132 192.08 23.4935 185.16 23.1628C183.988 23.1068 182.778 23.0597 181.533 23.0111C173.735 22.707 164.559 22.3492 154.551 19.4282C153.984 22.3788 153.298 25.0789 152.498 27.5532C162.9 30.7903 172.445 31.1635 180.56 31.4808C181.803 31.5294 183.013 31.5767 184.188 31.6328C191.08 31.9621 196.824 32.5942 200.858 35.6732C204.912 38.7676 207.163 44.2654 207.277 54.1228L206.688 54.1088C206.575 44.3007 204.332 39.0252 200.497 36.0976C196.641 33.1546 191.099 32.5161 184.179 32.1855C183.007 32.1295 181.797 32.0823 180.552 32.0337C172.432 31.7171 162.819 31.3422 152.327 28.0759C151.911 29.3205 151.466 30.5069 150.992 31.6385C150.425 32.991 149.817 34.265 149.17 35.4659C160.218 39.2031 170.349 39.5992 178.894 39.9333C180.138 39.9819 181.348 40.0293 182.522 40.0854C189.414 40.4146 195.158 41.0467 199.192 44.1257C203.246 47.2201 205.497 52.718 205.611 62.5753L205.022 62.5614C204.909 52.7532 202.666 47.4777 198.831 44.5501C194.975 41.6071 189.434 40.9686 182.513 40.638C181.341 40.582 180.131 40.5348 178.887 40.4863C170.314 40.152 160.079 39.7528 148.902 35.9558C147.556 38.3702 146.045 40.4829 144.379 42.342C156.327 46.8522 167.28 47.2804 176.419 47.6378C177.662 47.6864 178.872 47.7337 180.047 47.7898C186.939 48.1191 192.683 48.7512 196.717 51.8301C200.771 54.9246 203.022 60.4224 203.136 70.2798L202.547 70.2658C202.434 60.4577 200.191 55.1822 196.356 52.2546C192.5 49.3116 186.958 48.6731 180.038 48.3425C178.866 48.2864 177.656 48.2393 176.411 48.1907C167.217 47.8322 156.11 47.399 143.98 42.7793C142.148 44.7514 140.135 46.4299 137.955 47.8759C151.085 53.5418 163.125 54.0126 173.033 54.4C174.277 54.4486 175.487 54.4959 176.662 54.5521C183.553 54.8813 189.298 55.5134 193.332 58.5924C197.386 61.6868 199.637 67.1847 199.75 77.042L199.161 77.0281C199.048 67.2199 196.806 61.9444 192.97 59.0168C189.114 56.0738 183.573 55.4353 176.653 55.1047C175.48 55.0487 174.271 55.0015 173.026 54.953C163.031 54.5632 150.774 54.0852 137.401 48.236C135.711 49.3135 133.923 50.2578 132.045 51.0964C131.413 51.3784 130.771 51.6485 130.119 51.9076C144.613 59.1197 157.923 59.6402 168.709 60.0619C169.953 60.1105 171.163 60.1578 172.337 60.214C179.229 60.5432 184.973 61.1753 189.007 64.2543C193.061 67.3487 195.312 72.8466 195.426 82.7039L194.837 82.69C194.724 72.8818 192.481 67.6063 188.646 64.6787C184.79 61.7357 179.248 61.0972 172.328 60.7666C171.156 60.7106 169.946 60.6634 168.701 60.6149C157.804 60.1899 144.217 59.66 129.426 52.1775C126.941 53.1262 124.314 53.9251 121.559 54.6307C137.355 63.5477 151.898 64.1164 163.513 64.5705C164.757 64.6192 165.967 64.6665 167.142 64.7226C174.033 65.0518 179.778 65.6839 183.812 68.7629C187.866 71.8573 190.117 77.3552 190.23 87.2125L189.641 87.1986C189.528 77.3904 187.286 72.1149 183.45 69.1873C179.594 66.2443 174.053 65.6058 167.133 65.2752C165.96 65.2192 164.751 65.172 163.506 65.1235C151.767 64.6657 136.908 64.0862 120.785 54.8259C118.29 55.4443 115.694 55.9918 113.005 56.5094C129.819 66.9275 145.342 67.5345 157.602 68.0139C158.846 68.0625 160.056 68.1098 161.231 68.1659C168.122 68.4952 173.867 69.1273 177.901 72.2062C181.955 75.3007 184.206 80.7985 184.32 90.6558L183.731 90.6419C183.617 80.8338 181.375 75.5583 177.539 72.6307C173.684 69.6877 168.142 69.0492 161.222 68.7186C160.049 68.6625 158.84 68.6154 157.595 68.5668C145.211 68.0839 129.355 67.4655 112.204 56.6623C109.819 57.1138 107.362 57.5451 104.843 57.9846C122.32 69.4632 138.488 70.0954 151.167 70.5911C152.41 70.6397 153.621 70.687 154.795 70.7432C161.687 71.0724 167.431 71.7045 171.465 74.7835C175.519 77.8779 177.77 83.3758 177.884 93.2331L177.295 93.2192C177.182 83.411 174.939 78.1355 171.104 75.2079C167.248 72.2649 161.706 71.6264 154.786 71.2958C153.614 71.2398 152.404 71.1926 151.159 71.1441L151.159 71.144C138.362 70.645 121.857 70.0013 104.047 58.1233C103.61 58.1995 103.171 58.276 102.73 58.3529C100.906 58.6714 99.0498 58.9981 97.1633 59.3431C114.983 71.3965 131.487 72.0418 144.382 72.546C145.626 72.5946 146.836 72.642 148.01 72.6981C154.902 73.0273 160.647 73.6594 164.681 76.7384C168.735 79.8328 170.986 85.3307 171.099 95.188L170.51 95.1741C170.397 85.3659 168.155 80.0904 164.319 77.1628C160.463 74.2198 154.922 73.5813 148.002 73.2507C146.829 73.1947 145.62 73.1475 144.375 73.099C131.368 72.5917 114.531 71.9351 96.3869 59.4859C94.2717 59.8769 92.1192 60.2925 89.9325 60.7468C107.845 72.9583 124.44 73.6072 137.393 74.1137C138.637 74.1623 139.847 74.2097 141.021 74.2658C147.913 74.595 153.657 75.2271 157.691 78.3061C161.745 81.4005 163.996 86.8984 164.11 96.7557L163.521 96.7418C163.408 86.9336 161.165 81.6581 157.33 78.7305C153.474 75.7875 147.933 75.149 141.012 74.8184C139.84 74.7624 138.63 74.7152 137.386 74.6667C124.327 74.1574 107.407 73.4976 89.1808 60.9043C87.1757 61.3277 85.1424 61.7847 83.083 62.2862C100.904 74.3426 117.411 74.988 130.307 75.4922C131.55 75.5409 132.76 75.5882 133.935 75.6443C140.827 75.9735 146.571 76.6056 150.605 79.6846C154.659 82.779 156.91 88.2769 157.024 98.1342L156.435 98.1203C156.322 88.3121 154.079 83.0366 150.243 80.1091C146.388 77.166 140.846 76.5275 133.926 76.1969C132.754 76.1409 131.544 76.0937 130.299 76.0452C117.303 75.5384 100.484 74.8825 82.3581 62.4643C80.4438 62.9389 78.5074 63.4528 76.5507 64.0145C94.1542 75.7031 110.446 76.3401 123.205 76.839C124.449 76.8876 125.659 76.9349 126.833 76.991C133.725 77.3203 139.469 77.9524 143.503 81.0314C147.557 84.1258 149.808 89.6236 149.922 99.481L149.333 99.467C149.22 89.6589 146.977 84.3834 143.142 81.4558C139.286 78.5128 133.745 77.8743 126.824 77.5437C125.652 77.4877 124.442 77.4405 123.198 77.3919C110.345 76.8907 93.7519 76.2436 75.8539 64.2164C74.0138 64.7541 72.156 65.3348 70.282 65.9656C87.5827 77.1552 103.579 77.7807 116.146 78.2721C117.39 78.3207 118.6 78.368 119.774 78.4242C126.666 78.7534 132.41 79.3855 136.444 82.4645C140.498 85.5589 142.749 91.0567 142.863 100.914L142.274 100.9C142.161 91.092 139.918 85.8165 136.083 82.8889C132.227 79.9459 126.686 79.3074 119.765 78.9768C118.593 78.9208 117.384 78.8736 116.139 78.8251L116.139 78.825C103.482 78.3315 87.1987 77.6964 69.6138 66.1925C68.4662 66.5853 67.3125 66.9972 66.1533 67.4297C65.5048 67.6717 64.8635 67.9136 64.2291 68.1555C81.1779 78.7835 96.8315 79.3956 109.177 79.8783C110.42 79.9269 111.63 79.9743 112.805 80.0304C119.697 80.3596 125.441 80.9917 129.475 84.0707C133.529 87.1651 135.78 92.663 135.894 102.52L135.305 102.506C135.192 92.6982 132.949 87.4227 129.114 84.4951C125.258 81.5521 119.716 80.9136 112.796 80.583C111.624 80.527 110.414 80.4798 109.169 80.4313L109.169 80.4312C96.7379 79.9465 80.8081 79.3252 63.5826 68.403C61.7419 69.1102 59.9609 69.8171 58.2376 70.523C74.8577 80.6434 90.1931 81.2431 102.33 81.7177C103.574 81.7663 104.784 81.8136 105.959 81.8697C112.85 82.199 118.595 82.831 122.629 85.91C126.683 89.0044 128.934 94.5023 129.048 104.36L128.459 104.346C128.346 94.5376 126.103 89.262 122.267 86.3345C118.412 83.3915 112.87 82.753 105.95 82.4223C104.778 82.3663 103.568 82.3192 102.323 82.2706C90.1006 81.794 74.496 81.1854 57.6032 70.7839C55.7554 71.5468 53.9747 72.3085 52.2586 73.0682C68.6015 82.7732 83.6698 83.3624 95.6318 83.8301C96.8755 83.8787 98.0856 83.926 99.26 83.9821C106.152 84.3114 111.896 84.9435 115.93 88.0224C119.984 91.1169 122.235 96.6147 122.349 106.472L121.76 106.458C121.647 96.65 119.404 91.3745 115.569 88.4469C111.713 85.5039 106.171 84.8654 99.2513 84.5348C98.0794 84.4788 96.8702 84.4316 95.626 84.3831L95.6244 84.383C83.5794 83.9133 68.2499 83.3155 51.6397 73.3433C35.3256 80.6265 24.9218 87.7166 18.116 93.9272C9.90638 101.419 6.92074 107.64 5.10883 111.415C5.01529 111.61 4.92487 111.798 4.83703 111.98L4.29993 111.736C4.3832 111.564 4.46881 111.386 4.55726 111.201L4.56292 111.189L4.56679 111.181L4.57141 111.172C6.39291 107.377 9.41319 101.084 17.6988 93.5231C24.5116 87.3062 34.8767 80.238 51.05 72.9857C49.3696 71.9561 47.6763 70.8299 45.9724 69.5974C37.9123 63.7675 33.0908 57.9165 30.6216 52.1948C28.1512 46.4705 28.045 40.8977 29.3766 35.6418C32.0352 25.1483 40.4301 15.9029 47.1911 9.15854L47.6266 9.54552C40.8628 16.2927 32.5697 25.4474 29.9499 35.7882C28.6423 40.9494 28.7494 46.4024 31.1663 52.0029C33.5844 57.6061 38.3241 63.3793 46.321 69.1635C48.1151 70.4611 49.8969 71.64 51.6641 72.7115C53.3811 71.948 55.1627 71.1825 57.0116 70.4159C55.5734 69.5125 54.1262 68.5374 52.6711 67.485C44.611 61.6551 39.7895 55.8041 37.3203 50.0824C34.8499 44.358 34.7438 38.7853 36.0753 33.5294C38.7339 23.0359 47.1288 13.7905 53.8898 7.04613L54.3253 7.43311C47.5615 14.1803 39.2684 23.335 36.6486 33.6757C35.341 38.837 35.4481 44.2899 37.865 49.8905C40.2831 55.4937 45.0228 61.2668 53.0197 67.051C54.5698 68.1722 56.1108 69.2048 57.6411 70.156C59.3662 69.4463 61.1491 68.7357 62.992 68.0247C61.8391 67.2792 60.6807 66.4872 59.5172 65.6456C51.4571 59.8157 46.6356 53.9647 44.1664 48.243C41.696 42.5187 41.5899 36.946 42.9214 31.6901C45.58 21.1965 53.9749 11.9511 60.7359 5.20678L61.1714 5.59375C54.4076 12.3409 46.1145 21.4956 43.4947 31.8364C42.1871 36.9977 42.2942 42.4506 44.7111 48.0512C47.1292 53.6544 51.8689 59.4275 59.8658 65.2117C61.1281 66.1247 62.3842 66.9788 63.6334 67.7782C64.3857 67.4901 65.1479 67.202 65.9201 66.9139C66.9581 66.5266 67.9916 66.1558 69.0202 65.8004C68.1785 65.2389 67.3339 64.6523 66.4866 64.0394C58.4265 58.2095 53.6049 52.3585 51.1357 46.6368C48.6654 40.9125 48.5592 35.3397 49.8908 30.0839C52.5493 19.5903 60.9443 10.3449 67.7052 3.60056L68.1408 3.98755C61.377 10.7347 53.0839 19.8894 50.4641 30.2302C49.1565 35.3914 49.2636 40.8444 51.6805 46.4449C54.0986 52.0482 58.8383 57.8213 66.8352 63.6055C67.7877 64.2944 68.7367 64.9499 69.682 65.5736C71.5551 64.9369 73.4121 64.3506 75.2513 63.8075C74.684 63.4187 74.1153 63.0184 73.5455 62.6063C65.4855 56.7764 60.6639 50.9254 58.1947 45.2037C55.7243 39.4794 55.6182 33.9066 56.9498 28.6508C59.6083 18.1572 68.0032 8.91182 74.7642 2.16745L75.1998 2.55443C68.436 9.30158 60.1429 18.4563 57.523 28.7971C56.2154 33.9583 56.3225 39.4113 58.7394 45.0118C61.1575 50.615 65.8973 56.3882 73.8942 62.1724C74.5783 62.6672 75.2606 63.1447 75.9409 63.6056C77.8964 63.0382 79.8314 62.519 81.7442 62.0395C81.379 61.7844 81.0133 61.5244 80.6471 61.2595C72.587 55.4297 67.7655 49.5786 65.2963 43.857C62.8259 38.1326 62.7198 32.5599 64.0514 27.304C66.7099 16.8105 75.1048 7.56506 81.8658 0.820696L82.3013 1.20768C75.5376 7.95484 67.2444 17.1096 64.6246 27.4503C63.317 32.6116 63.4241 38.0645 65.841 43.6651C68.2591 49.2683 72.9988 55.0414 80.9957 60.8256C81.4852 61.1796 81.9737 61.5248 82.4613 61.8614C84.5186 61.3547 86.5498 60.893 88.5523 60.4657C88.2797 60.2735 88.0068 60.0786 87.7336 59.881C79.6735 54.0511 74.8519 48.2001 72.3827 42.4784C69.9124 36.7541 69.8062 31.1814 71.1378 25.9255C73.7963 15.4319 82.1913 6.18655 88.9522 -0.557815L89.3878 -0.170837C82.624 6.57632 74.3309 15.731 71.7111 26.0718C70.4035 31.2331 70.5106 36.686 72.9275 42.2866C75.3456 47.8898 80.0853 53.6629 88.0822 59.4471C88.4874 59.7402 88.892 60.0272 89.2959 60.3083C91.4797 59.8497 93.6289 59.4308 95.7403 59.0376C95.4016 58.8003 95.0624 58.5589 94.7228 58.3133C86.6628 52.4834 81.8412 46.6324 79.372 40.9107C76.9017 35.1864 76.7955 29.6137 78.1271 24.3578C80.7856 13.8643 89.1805 4.61885 95.9415 -2.12552L96.3771 -1.73854C89.6133 5.00862 81.3202 14.1634 78.7004 24.5041C77.3928 29.6654 77.4998 35.1183 79.9168 40.7189C82.3348 46.3221 87.0746 52.0952 95.0715 57.8794C95.5513 58.2265 96.0303 58.5651 96.5083 58.8954C98.5781 58.5141 100.611 58.1562 102.603 57.8083L103.379 57.673C102.757 57.2488 102.133 56.8108 101.507 56.3584C93.4473 50.5285 88.6257 44.6775 86.1565 38.9558C83.6862 33.2315 83.58 27.6587 84.9116 22.4029C87.5701 11.9093 95.965 2.66394 102.726 -4.08043L103.162 -3.69345C96.3978 3.05371 88.1047 12.2084 85.4849 22.5492C84.1772 27.7105 84.2843 33.1634 86.7013 38.764C89.1193 44.3672 93.8591 50.1403 101.856 55.9245C102.629 56.4833 103.399 57.02 104.167 57.5357C106.686 57.0965 109.137 56.6682 111.515 56.2232C110.33 55.4593 109.139 54.6464 107.943 53.7812C99.8829 47.9513 95.0613 42.1003 92.5921 36.3786C90.1218 30.6543 90.0156 25.0815 91.3472 19.8256C94.0058 9.3321 102.401 0.0867094 109.162 -6.65766L109.597 -6.27068C102.833 0.476474 94.5403 9.63121 91.9205 19.972C90.6129 25.1332 90.72 30.5862 93.1369 36.1867C95.555 41.7899 100.295 47.5631 108.292 53.3473C109.638 54.3213 110.978 55.2283 112.31 56.0733C115.001 55.5615 117.596 55.0239 120.087 54.42C118.028 53.2081 115.949 51.8533 113.854 50.3378C105.794 44.508 100.972 38.6569 98.503 32.9353C96.0327 27.2109 95.9265 21.6382 97.2581 16.3823C99.58 7.21768 106.277 -0.994932 112.44 -7.42088C112.502 -7.69976 112.569 -7.97778 112.639 -8.25492C112.873 -9.18092 113.153 -10.0972 113.472 -11.0029C113.541 -12.9393 113.832 -14.8433 114.304 -16.7074C114.365 -16.9474 114.429 -17.1866 114.496 -17.4252C114.316 -20.0107 114.553 -22.5456 115.113 -25.013C114.6 -28.4987 114.871 -31.9012 115.702 -35.1803ZM115.271 -9.92497L115.073 -10.101C114.905 -9.93377 114.736 -9.76501 114.567 -9.59473C114.922 -10.215 115.291 -10.8286 115.674 -11.4351C115.75 -11.204 115.829 -10.9726 115.912 -10.7408C115.697 -10.4708 115.483 -10.1989 115.271 -9.92497ZM113.565 -7.74697L113.569 -7.75097L113.579 -7.64893C113.504 -7.54402 113.43 -7.43884 113.356 -7.33344C113.425 -7.47158 113.494 -7.60943 113.565 -7.74697ZM112.223 -6.34762C106.27 -0.050391 100.038 7.81837 97.8314 16.5286C96.5238 21.6899 96.6309 27.1428 99.0478 32.7434C101.466 38.3466 106.206 44.1197 114.203 49.9039C116.442 51.5236 118.662 52.9582 120.858 54.2298C123.624 53.5375 126.257 52.7566 128.748 51.8297C125.565 50.1774 122.327 48.1998 119.049 45.8292C110.989 39.9993 106.168 34.1483 103.699 28.4266C101.228 22.7023 101.122 17.1296 102.454 11.8737C104.04 5.6107 107.671 -0.207652 111.777 -5.31503C111.919 -5.65081 112.066 -5.98498 112.217 -6.3175L112.223 -6.34762ZM119.446 -14.0172C119.476 -13.9707 119.507 -13.9242 119.538 -13.8777C118.927 -13.2615 118.304 -12.6259 117.676 -11.9717C118.261 -12.6678 118.852 -13.3499 119.446 -14.0172ZM116.32 -9.67886C115.613 -8.9106 114.906 -8.12094 114.205 -7.31107C114.472 -5.02263 115.079 -2.6975 116.094 -0.346365C118.512 5.25685 123.252 11.03 131.249 16.8142C138.387 21.9773 145.331 25.2603 151.935 27.3753C152.733 24.908 153.417 22.2113 153.982 19.2595C146.956 17.1468 139.527 13.7555 131.881 8.22546C123.821 2.39559 119 -3.45543 116.531 -9.17712C116.458 -9.34449 116.388 -9.51174 116.32 -9.67886ZM113.691 -6.7117C113.596 -6.59899 113.5 -6.48589 113.405 -6.37243C113.144 -5.99115 112.889 -5.60682 112.638 -5.21957C112.023 -0.927822 112.458 3.5401 114.428 8.10616C116.847 13.7094 121.586 19.4825 129.583 25.2667C136.124 29.998 142.502 33.1505 148.605 35.2723C149.259 34.0655 149.872 32.7834 150.443 31.4199C150.912 30.3019 151.352 29.129 151.763 27.898C145.104 25.7652 138.098 22.4545 130.9 17.2481C122.84 11.4182 118.019 5.5672 115.549 -0.154487C114.595 -2.36603 113.993 -4.55494 113.691 -6.7117ZM103.027 12.02C104.326 6.89429 107.018 2.06 110.227 -2.33412C108.732 0.396699 107.527 3.25468 106.778 6.21177C105.447 11.4676 105.553 17.0404 108.023 22.7647C110.492 28.4864 115.314 34.3374 123.374 40.1673C127.929 43.4624 132.408 45.9981 136.771 47.9565C135.19 48.9434 133.524 49.815 131.778 50.5944C131.014 50.9353 130.236 51.2585 129.442 51.5661C126.148 49.8838 122.795 47.8525 119.398 45.3953C111.401 39.6111 106.661 33.838 104.243 28.2348C101.826 22.6342 101.719 17.1812 103.027 12.02ZM119.87 -13.3861C118.85 -12.3571 117.804 -11.2762 116.754 -10.1476C116.856 -9.88839 116.963 -9.62885 117.075 -9.36898C119.493 -3.76577 124.233 2.00735 132.23 7.79155C139.79 13.2599 147.132 16.6193 154.084 18.7158C154.577 16.0445 154.974 13.1674 155.271 10.0659C147.989 7.9745 140.26 4.53486 132.298 -1.22475C126.684 -5.2852 122.641 -9.35593 119.87 -13.3861ZM110.389 -1.38817C109.081 1.10098 108.027 3.69004 107.351 6.35809C106.044 11.5193 106.151 16.9723 108.568 22.5728C110.986 28.1761 115.726 33.9492 123.722 39.7334C128.353 43.0824 132.901 45.6403 137.328 47.6016C139.524 46.1741 141.55 44.5128 143.394 42.5532C138.02 40.4522 132.45 37.521 126.759 33.4051C118.699 27.5752 113.878 21.7242 111.408 16.0025C108.938 10.2782 108.832 4.70542 110.163 -0.550463C110.234 -0.830598 110.31 -1.10983 110.389 -1.38817ZM119.118 -14.527C118.182 -13.4787 117.25 -12.3927 116.34 -11.2717C116.248 -11.5385 116.162 -11.8049 116.081 -12.0709C116.85 -13.2529 117.664 -14.4074 118.511 -15.5317C118.705 -15.1971 118.907 -14.8623 119.118 -14.527ZM117.326 -17.7879C117.592 -17.2222 117.882 -16.6553 118.196 -16.0873C117.389 -15.0236 116.608 -13.932 115.867 -12.8146C115.726 -13.3312 115.605 -13.8462 115.501 -14.3595C116.054 -15.5233 116.666 -16.6668 117.326 -17.7879ZM115.097 -13.4816C115.2 -13.0455 115.316 -12.6083 115.445 -12.1699C114.959 -11.4142 114.491 -10.6471 114.045 -9.8692C114.042 -10.2092 114.046 -10.5483 114.057 -10.8864C114.368 -11.7614 114.716 -12.6267 115.097 -13.4816ZM113.477 -9.08374C113.48 -9.01081 113.483 -8.93783 113.487 -8.86482C113.437 -8.77173 113.387 -8.6785 113.337 -8.58513C113.382 -8.75165 113.429 -8.91786 113.477 -9.08374ZM110.737 -0.404147C111.049 -1.63735 111.442 -2.85369 111.904 -4.05109C111.526 -0.0613068 112.062 4.07715 113.884 8.29803C116.353 14.0197 121.174 19.8707 129.235 25.7006C135.801 30.45 142.207 33.6219 148.336 35.7611C146.986 38.171 145.469 40.2734 143.795 42.1187C138.407 40.0301 132.82 37.1025 127.108 32.9712C119.111 27.187 114.371 21.4138 111.953 15.8106C109.536 10.2101 109.429 4.75711 110.737 -0.404147ZM114.889 -14.445C114.649 -13.9364 114.421 -13.4239 114.205 -12.9076C114.312 -13.8506 114.471 -14.7853 114.676 -15.711C114.735 -15.2902 114.806 -14.8682 114.889 -14.445ZM117.028 -18.44C116.42 -17.4256 115.849 -16.3921 115.323 -15.3412C115.216 -16.0147 115.139 -16.6852 115.09 -17.3524C115.398 -18.4432 115.768 -19.5203 116.192 -20.5822C116.413 -19.9327 116.665 -19.281 116.947 -18.6273C116.974 -18.5649 117.001 -18.5024 117.028 -18.44ZM115.4 -23.4288C115.541 -22.7733 115.711 -22.1152 115.911 -21.4547C115.588 -20.6891 115.292 -19.9152 115.026 -19.1335C115.027 -20.5832 115.158 -22.0158 115.4 -23.4288Z" fill="url(#paint0_radial_1_189)" fill-opacity="0.58" shape-rendering="crispEdges"/>
</g>
<defs>
<filter id="filter0_d_1_189" x="0.299927" y="-61.6636" width="212.374" height="181.643" filterUnits="userSpaceOnUse" color-interpolation-filters="sRGB">
<feFlood flood-opacity="0" result="BackgroundImageFix"/>
<feColorMatrix in="SourceAlpha" type="matrix" values="0 0 0 0 0 0 0 0 0 0 0 0 0 0 0 0 0 0 127 0" result="hardAlpha"/>
<feOffset dy="4"/>
<feGaussianBlur stdDeviation="2"/>
<feComposite in2="hardAlpha" operator="out"/>
<feColorMatrix type="matrix" values="0 0 0 0 0 0 0 0 0 0 0 0 0 0 0 0 0 0 0.25 0"/>
<feBlend mode="normal" in2="BackgroundImageFix" result="effect1_dropShadow_1_189"/>
<feBlend mode="normal" in="SourceGraphic" in2="effect1_dropShadow_1_189" result="shape"/>
</filter>
<radialGradient id="paint0_radial_1_189" cx="0" cy="0" r="1" gradientUnits="userSpaceOnUse" gradientTransform="translate(80.1162 55.0522) rotate(40.616) scale(84.2763 107.359)">
<stop stop-color="white"/>
<stop offset="1" stop-color="#1E1E1E" stop-opacity="0"/>
<stop offset="1" stop-color="#0E0E35" stop-opacity="0"/>
<stop offset="1" stop-color="white" stop-opacity="0"/>
</radialGradient>
</defs>
</svg>
