<svg width="171" height="137" viewBox="0 0 171 137" fill="none" xmlns="http://www.w3.org/2000/svg">
<g filter="url(#filter0_dd_1_252)">
<path fill-rule="evenodd" clip-rule="evenodd" d="M161.709 -188.882C151.64 -173.797 139.501 -153.494 138.476 -133.034C138.155 -126.631 138.922 -120.212 141.181 -113.932C141.056 -109.122 141.561 -104.309 142.867 -99.5587C142.831 -99.078 142.801 -98.5972 142.777 -98.1162C142.594 -94.4727 142.764 -90.8237 143.36 -87.198C143.103 -85.3875 142.925 -83.5723 142.834 -81.7558C142.806 -81.1941 142.786 -80.6322 142.775 -80.0704C133.696 -65.8023 124.299 -48.0295 123.403 -30.1355C122.889 -19.8956 125.159 -9.6121 131.864 0.0732928C138.566 9.7563 149.687 18.8217 166.841 26.6501C206.797 44.8848 239.504 39.6382 264.654 35.6037C266.989 35.2291 269.259 34.8649 271.464 34.531C284.46 32.5626 295.105 31.6599 303.475 35.7429C311.821 39.8148 317.991 48.8967 321.872 67.1382L322.452 67.0359C318.561 48.7464 312.339 39.4481 303.746 35.2556C295.175 31.0744 284.332 32.0233 271.364 33.9874C269.16 34.3212 266.893 34.6848 264.562 35.0585L264.556 35.0595L264.552 35.0601C239.408 39.0923 206.875 44.3093 167.097 26.156C150.014 18.36 138.989 9.3549 132.36 -0.222025C125.732 -9.79657 123.485 -19.9624 123.993 -30.1048C124.866 -47.524 133.865 -64.8621 142.764 -78.9652C142.764 -78.6362 142.768 -78.3073 142.774 -77.9784C142.611 -77.2844 142.459 -76.5891 142.317 -75.8927C136.583 -64.8612 132.004 -52.6947 131.392 -40.4717C130.879 -30.2319 133.148 -19.9483 139.853 -10.263C146.555 -0.579944 157.676 8.48544 174.83 16.3139C214.787 34.5486 247.493 29.3019 272.643 25.2675C274.978 24.8929 277.248 24.5287 279.453 24.1947C292.449 22.2263 303.094 21.3236 311.464 25.4067C319.81 29.4785 325.981 38.5605 329.861 56.8019L330.441 56.6997C326.551 38.4101 320.328 29.1119 311.735 24.9194C303.164 20.7381 292.321 21.687 279.353 23.6512C277.146 23.9854 274.876 24.3496 272.541 24.7239C247.397 28.756 214.864 33.973 175.086 15.8198C158.003 8.02376 146.978 -0.981339 140.349 -10.5583C133.722 -20.1328 131.474 -30.2987 131.983 -40.4411C132.557 -51.9049 136.651 -63.3337 141.92 -73.8284C139.405 -66.9259 137.686 -59.7875 137.328 -52.6297C136.815 -42.3898 139.085 -32.1063 145.789 -22.4209C152.491 -12.7379 163.612 -3.67254 180.766 4.15587C220.723 22.3906 253.429 17.1439 278.579 13.1095L278.584 13.1088L278.595 13.1068L278.603 13.1056L278.607 13.1049L278.622 13.1026C280.942 12.7305 283.198 12.3687 285.389 12.0367C298.385 10.0683 309.03 9.16566 317.4 13.2487C325.747 17.3206 331.917 26.4025 335.797 44.6439L336.377 44.5417C332.487 26.2521 326.265 16.9539 317.671 12.7614C309.1 8.58014 298.257 9.52904 285.289 11.4932C283.082 11.8275 280.812 12.1916 278.477 12.5659L278.477 12.5659C253.333 16.5981 220.8 21.815 181.023 3.66183C163.94 -4.13421 152.914 -13.1393 146.285 -22.7162C139.658 -32.2908 137.41 -42.4567 137.919 -52.599C138.224 -58.7005 139.527 -64.792 141.473 -70.738C141.3 -69.3224 141.175 -67.9044 141.104 -66.4856C140.591 -56.2458 142.861 -45.9622 149.565 -36.2768C156.268 -26.5938 167.388 -17.5284 184.542 -9.70004C224.499 8.53468 257.205 3.28802 282.355 -0.74642L282.358 -0.746843C284.692 -1.12132 286.962 -1.48534 289.166 -1.81916C302.161 -3.78758 312.807 -4.69027 321.176 -0.607227C329.523 3.46464 335.693 12.5466 339.573 30.788L340.154 30.6858C336.263 12.3962 330.041 3.09795 321.447 -1.09449C312.876 -5.27577 302.033 -4.32687 289.065 -2.36272C286.859 -2.02846 284.588 -1.66434 282.254 -1.29001C257.109 2.74214 224.577 7.9591 184.799 -10.1941C167.716 -17.9901 156.691 -26.9952 150.061 -36.5722C143.434 -46.1467 141.187 -56.3126 141.695 -66.455C141.817 -68.888 142.097 -71.3194 142.514 -73.7407C142.65 -74.1124 142.788 -74.4835 142.928 -74.8538C143.565 -66.9247 146.097 -59.0561 151.295 -51.547C157.997 -41.864 169.118 -32.7986 186.272 -24.9702C226.229 -6.73547 258.935 -11.9821 284.085 -16.0166L284.088 -16.017C286.422 -16.3915 288.691 -16.7555 290.895 -17.0893C303.891 -19.0577 314.537 -19.9604 322.906 -15.8774C331.253 -11.8055 337.423 -2.72357 341.303 15.5179L341.883 15.4156C337.993 -2.87393 331.771 -12.1722 323.177 -16.3646C314.606 -20.5459 303.763 -19.597 290.795 -17.6329C288.594 -17.2995 286.33 -16.9364 284.002 -16.5632L283.994 -16.5618L283.99 -16.5613L283.983 -16.5602C258.839 -12.528 226.307 -7.31104 186.529 -25.4642C169.446 -33.2603 158.42 -42.2654 151.791 -51.8423C146.377 -59.6643 143.886 -67.8809 143.433 -76.157C143.763 -76.9942 144.105 -77.8276 144.456 -78.6568C144.69 -79.0841 144.926 -79.5096 145.162 -79.933C146.533 -75.8548 148.521 -71.832 151.238 -67.9075C157.94 -58.2245 169.061 -49.1591 186.215 -41.3307C226.172 -23.096 258.878 -28.3426 284.028 -32.377L284.035 -32.3782C286.368 -32.7524 288.636 -33.1162 290.838 -33.4498C303.834 -35.4182 314.479 -36.3209 322.849 -32.2379C331.196 -28.166 337.366 -19.0841 341.246 -0.842599L341.826 -0.944863C337.936 -19.2344 331.714 -28.5327 323.12 -32.7251C314.549 -36.9064 303.706 -35.9575 290.738 -33.9934C288.533 -33.6594 286.264 -33.2956 283.932 -32.9215L283.928 -32.9209L283.926 -32.9206C258.782 -28.8885 226.249 -23.6715 186.472 -41.8247C169.389 -49.6208 158.363 -58.6259 151.734 -68.2028C148.93 -72.2533 146.911 -76.4097 145.552 -80.6254C146.642 -82.5556 147.757 -84.444 148.88 -86.2842C149.144 -85.8797 149.415 -85.4761 149.693 -85.0736C156.396 -75.3906 167.517 -66.3252 184.671 -58.4968C224.627 -40.2621 257.334 -45.5088 282.483 -49.5432L282.485 -49.5435C284.82 -49.918 287.09 -50.2821 289.294 -50.6159C302.289 -52.5843 312.935 -53.487 321.304 -49.404C329.651 -45.3321 335.821 -36.2502 339.702 -18.0087L340.282 -18.111C336.391 -36.4005 330.169 -45.6988 321.575 -49.8913C313.004 -54.0725 302.161 -53.1236 289.194 -51.1595C286.989 -50.8255 284.72 -50.4617 282.388 -50.0877L282.383 -50.087L282.382 -50.0868C257.238 -46.0546 224.705 -40.8377 184.927 -58.9909C167.844 -66.7869 156.819 -75.792 150.19 -85.3689C149.853 -85.8546 149.528 -86.3418 149.215 -86.8305C150.836 -89.4713 152.471 -92.0105 154.067 -94.4286C160.729 -87.8984 169.823 -81.7659 181.914 -76.248C221.871 -58.0133 254.577 -63.2599 279.727 -67.2944C282.062 -67.669 284.332 -68.0332 286.537 -68.3671C299.533 -70.3355 310.178 -71.2382 318.548 -67.1552C326.895 -63.0833 333.065 -54.0014 336.945 -35.7599L337.525 -35.8622C333.635 -54.1517 327.413 -63.45 318.819 -67.6424C310.248 -71.8237 299.405 -70.8748 286.437 -68.9106C284.23 -68.5764 281.96 -68.2123 279.625 -67.8379C254.481 -63.8058 221.948 -58.5888 182.171 -76.742C170.064 -82.267 161 -88.3991 154.387 -94.9117C154.635 -95.2864 154.882 -95.6581 155.128 -96.0268L154.625 -96.3205C154.406 -95.9927 154.187 -95.6625 153.966 -95.3299C153.753 -95.5442 153.542 -95.7588 153.333 -95.9739C155.899 -100.312 158.544 -104.408 161.065 -108.185L160.561 -108.478C158.072 -104.749 155.457 -100.701 152.914 -96.4111C152.244 -97.1162 151.601 -97.8256 150.986 -98.5388C155.184 -107.125 160.221 -115.12 164.841 -122.041L164.338 -122.334C159.764 -115.483 154.764 -107.555 150.572 -99.0245C149.607 -100.168 148.711 -101.322 147.881 -102.484C152.521 -115.347 159.972 -127.425 166.571 -137.311L166.067 -137.605C159.54 -127.826 152.144 -115.855 147.468 -103.07L147.433 -103.12C146.391 -104.626 145.457 -106.146 144.625 -107.679C148.145 -124.641 158.033 -140.966 166.514 -153.671L166.01 -153.965C157.649 -141.439 147.861 -125.316 144.194 -108.492C143.249 -110.316 142.446 -112.157 141.775 -114.011C141.786 -114.424 141.802 -114.838 141.823 -115.252C142.84 -135.555 154.898 -155.749 164.969 -170.837L164.466 -171.131C154.441 -156.113 142.365 -135.924 141.247 -115.555C139.396 -121.3 138.774 -127.156 139.067 -133.003C140.084 -153.306 152.141 -173.5 162.213 -188.589L161.709 -188.882ZM144.235 -81.2693C143.92 -80.1567 143.63 -79.04 143.366 -77.92L143.367 -77.8777C143.55 -78.2166 143.733 -78.5543 143.918 -78.8909C144.214 -79.5888 144.517 -80.2837 144.826 -80.9753C144.741 -81.2503 144.658 -81.5256 144.579 -81.8011C144.464 -81.6244 144.349 -81.4471 144.235 -81.2693ZM145.004 -82.4552C145.065 -82.233 145.129 -82.0109 145.194 -81.7891C145.715 -82.9329 146.254 -84.0674 146.807 -85.1915C146.211 -84.2965 145.609 -83.3841 145.004 -82.4552ZM147.073 -85.7294C147.389 -86.366 147.71 -86.9991 148.035 -87.6286C147.669 -88.2312 147.319 -88.8357 146.985 -89.4423C146.19 -87.3924 145.462 -85.3201 144.816 -83.2312C145.428 -84.1667 146.036 -85.0847 146.636 -85.9842L147.073 -85.7294ZM143.685 -81.4906C143.848 -82.0664 144.018 -82.6411 144.194 -83.2145C144.018 -83.9054 143.858 -84.5976 143.714 -85.2908C143.582 -84.1033 143.484 -82.9144 143.425 -81.7251C143.413 -81.4967 143.403 -81.2683 143.395 -81.0399C143.491 -81.1905 143.588 -81.3408 143.685 -81.4906ZM148.53 -86.8296C148.053 -86.0509 147.578 -85.2633 147.105 -84.4673C147.526 -85.3331 147.956 -86.193 148.394 -87.0464C148.439 -86.9741 148.484 -86.9018 148.53 -86.8296ZM153.646 -94.8458C152.076 -92.4706 150.467 -89.9755 148.867 -87.3789C148.812 -87.4677 148.757 -87.5565 148.702 -87.6454C150.09 -90.3223 151.547 -92.934 153.033 -95.4653C153.235 -95.2584 153.439 -95.0519 153.646 -94.8458ZM152.612 -95.9012C151.954 -96.5898 151.321 -97.2827 150.714 -97.9794C149.476 -95.4164 148.314 -92.8018 147.262 -90.1484C147.606 -89.5072 147.968 -88.8682 148.347 -88.2314C149.717 -90.8577 151.151 -93.4191 152.612 -95.9012ZM146.619 -90.1203C145.863 -88.199 145.164 -86.257 144.535 -84.2993C144.311 -85.2637 144.119 -86.2305 143.958 -87.1991C144.247 -89.2211 144.635 -91.2376 145.109 -93.2435C145.568 -92.1975 146.071 -91.1562 146.619 -90.1203ZM150.297 -98.4632C149.085 -95.9661 147.943 -93.4186 146.903 -90.8324C146.329 -91.9455 145.809 -93.0646 145.339 -94.1891C145.98 -96.7566 146.758 -99.3055 147.646 -101.825C148.467 -100.695 149.35 -99.5744 150.297 -98.4632ZM147.228 -102.408C147.13 -102.547 147.033 -102.686 146.937 -102.825C146.027 -104.139 145.199 -105.465 144.448 -106.8C143.984 -104.41 143.649 -102.009 143.464 -99.6042C143.881 -98.099 144.38 -96.6004 144.965 -95.1105C145.605 -97.5647 146.368 -100 147.228 -102.408ZM144.721 -94.1524C144.207 -95.3943 143.754 -96.6424 143.358 -97.8954C143.222 -94.9852 143.314 -92.0734 143.672 -89.1745C143.961 -90.8399 144.313 -92.5001 144.721 -94.1524ZM144.006 -107.603C143.578 -105.515 143.247 -103.417 143.026 -101.314C142.158 -104.992 141.761 -108.704 141.754 -112.422C142.401 -110.804 143.149 -109.197 144.006 -107.603ZM113.684 -21.5154C114.709 -41.9763 126.848 -62.2787 136.917 -77.3641L137.42 -77.0704C127.349 -61.9817 115.292 -41.7882 114.274 -21.4847C113.766 -11.3424 116.013 -1.1765 122.641 8.39805C129.27 17.975 140.295 26.9801 157.378 34.7761C197.156 52.9293 229.689 47.7124 254.833 43.6802C257.168 43.3059 259.438 42.9418 261.645 42.6075C274.613 40.6433 285.456 39.6944 294.027 43.8757C302.62 48.0682 308.843 57.3664 312.733 75.656L312.153 75.7582C308.273 57.5168 302.102 48.4349 293.756 44.363C285.386 40.2799 274.741 41.1826 261.745 43.151C259.54 43.485 257.27 43.8492 254.935 44.2238C229.785 48.2582 197.079 53.5049 157.122 35.2702C139.968 27.4418 128.847 18.3764 122.145 8.69336C115.44 -0.992031 113.17 -11.2755 113.684 -21.5154ZM125.898 -70.1606C115.828 -55.0751 103.689 -34.7728 102.664 -14.3118C102.151 -4.07199 104.421 6.21153 111.125 15.8969C117.828 25.5799 128.948 34.6453 146.102 42.4737C186.059 60.7084 218.765 55.4618 243.915 51.4274C246.251 51.0527 248.521 50.6886 250.726 50.3546C263.721 48.3862 274.367 47.4835 282.736 51.5665C291.083 55.6384 297.253 64.7203 301.133 82.9618L301.714 82.8595C297.823 64.57 291.601 55.2717 283.007 51.0793C274.436 46.898 263.593 47.8469 250.625 49.811C248.419 50.1452 246.149 50.5093 243.815 50.8835L243.814 50.8838C218.669 54.9159 186.137 60.1329 146.359 41.9797C129.276 34.1836 118.251 25.1785 111.621 15.6016C104.994 6.02705 102.747 -4.13882 103.255 -14.2812C104.272 -34.5847 116.329 -54.7781 126.401 -69.8669L125.898 -70.1606ZM90.7621 -8.13682C91.7874 -28.5977 103.926 -48.9001 113.996 -63.9856L114.499 -63.6919C104.427 -48.6031 92.3704 -28.4097 91.353 -8.10617C90.8448 2.0362 93.092 12.2021 99.7195 21.7766C106.349 31.3535 117.374 40.3587 134.457 48.1547C174.235 66.3079 206.767 61.0909 231.912 57.0588L231.916 57.0581L231.922 57.0572C234.253 56.6834 236.52 56.3198 238.724 55.9861C251.691 54.0219 262.534 53.073 271.105 57.2543C279.699 61.4467 285.921 70.745 289.812 89.0346L289.231 89.1368C285.351 70.8953 279.181 61.8134 270.834 57.7416C262.465 53.6585 251.819 54.5612 238.824 56.5296C236.632 56.8615 234.376 57.2233 232.056 57.5955L232.042 57.5978L232.037 57.5985L232.03 57.5997L232.018 57.6016L232.013 57.6024C206.864 61.6368 174.157 66.8835 134.2 48.6487C117.047 40.8203 105.926 31.755 99.2231 22.0719C92.5189 12.3865 90.2491 2.10303 90.7621 -8.13682ZM101.568 -58.4547C91.4989 -43.3692 79.3598 -23.0669 78.3346 -2.60597C77.8215 7.63387 80.0914 17.9174 86.7955 27.6028C93.4981 37.2858 104.619 46.3512 121.773 54.1796C161.729 72.4143 194.436 67.1676 219.586 63.1332C221.921 62.7586 224.191 62.3944 226.396 62.0605C239.392 60.092 250.037 59.1894 258.407 63.2724C266.753 67.3443 272.924 76.4262 276.804 94.6676L277.384 94.5654C273.493 76.2758 267.271 66.9776 258.678 62.7851C250.107 58.6038 239.264 59.5528 226.296 61.5169C224.089 61.8512 221.818 62.2153 219.484 62.5896C194.34 66.6218 161.807 71.8387 122.029 53.6855C104.946 45.8895 93.921 36.8844 87.2919 27.3075C80.6644 17.7329 78.4172 7.56705 78.9254 -2.57533C79.9428 -22.8788 91.9999 -43.0723 102.071 -58.161L101.568 -58.4547ZM65.6552 2.6088C66.6804 -17.8521 78.8195 -38.1545 88.8888 -53.24L89.392 -52.9463C79.3205 -37.8575 67.2634 -17.6641 66.246 2.63944C65.7378 12.7818 67.9851 22.9477 74.6125 32.5222C81.2416 42.0992 92.267 51.1043 109.35 58.9003C149.128 77.0535 181.661 71.8365 206.805 67.8044L206.809 67.8037L206.815 67.8028C209.146 67.429 211.413 67.0654 213.617 66.7317C226.584 64.7675 237.427 63.8186 245.998 67.9999C254.592 72.1923 260.814 81.4906 264.705 99.7802L264.124 99.8824C260.244 81.641 254.074 72.559 245.727 68.4872C237.358 64.4041 226.712 65.3068 213.717 67.2752C211.514 67.6088 209.246 67.9726 206.914 68.3468L206.906 68.348C181.757 72.3824 149.05 77.6291 109.093 59.3943C91.9396 51.5659 80.8187 42.5006 74.1162 32.8175C67.412 23.1322 65.1421 12.8486 65.6552 2.6088ZM76.1694 -48.0788C66.1001 -32.9933 53.961 -12.6909 52.9358 7.76998C52.4227 18.0098 54.6926 28.2933 61.3968 37.9787C68.0993 47.6617 79.2202 56.7271 96.3741 64.5555C136.331 82.7903 169.037 77.5436 194.187 73.5092L194.191 73.5085C196.525 73.1341 198.794 72.7702 200.997 72.4364C213.993 70.468 224.638 69.5653 233.008 73.6484C241.355 77.7202 247.525 86.8022 251.405 105.044L251.985 104.941C248.095 86.6518 241.873 77.3535 233.279 73.1611C224.708 68.9798 213.865 69.9287 200.897 71.8929C198.693 72.2267 196.425 72.5903 194.094 72.9642L194.089 72.9649L194.085 72.9656C168.941 76.9977 136.409 82.2147 96.6305 64.0615C79.5476 56.2655 68.5222 47.2603 61.8931 37.6834C55.2657 28.1089 53.0184 17.943 53.5266 7.80063C54.544 -12.5029 66.6011 -32.6963 76.6726 -47.7851L76.1694 -48.0788ZM40.3279 13.0761C41.3532 -7.3848 53.4922 -27.6871 63.5615 -42.7726L64.0647 -42.4789C53.9932 -27.3902 41.9361 -7.19673 40.9188 13.1068C40.4106 23.2491 42.6578 33.415 49.2853 42.9896C55.9144 52.5665 66.9397 61.5716 84.0227 69.3676C123.801 87.5208 156.333 82.3039 181.478 78.2717L181.483 78.2708C183.815 77.8968 186.084 77.533 188.289 77.199C201.257 75.2349 212.1 74.286 220.671 78.4672C229.265 82.6597 235.487 91.9579 239.377 110.248L238.797 110.35C234.917 92.1083 228.747 83.0264 220.4 78.9545C212.031 74.8715 201.385 75.7742 188.389 77.7426C186.186 78.0763 183.917 78.4403 181.583 78.8147L181.582 78.8148L181.579 78.8153C156.429 82.8497 123.723 88.0964 83.7662 69.8617C66.6123 62.0333 55.4915 52.9679 48.7889 43.2849C42.0847 33.5995 39.8148 23.316 40.3279 13.0761ZM51.1851 -37.1777C41.1159 -22.0922 28.9768 -1.78984 27.9515 18.6711C27.4384 28.9109 29.7083 39.1945 36.4125 48.8798C43.1151 58.5629 54.2359 67.6282 71.3899 75.4567C111.346 93.6914 144.053 88.4447 169.203 84.4103C171.538 84.0357 173.808 83.6715 176.013 83.3375C189.009 81.3691 199.654 80.4664 208.024 84.5495C216.37 88.6213 222.541 97.7032 226.421 115.945L227.001 115.842C223.11 97.5529 216.888 88.2546 208.295 84.0622C199.724 79.8809 188.881 80.8298 175.913 82.794C173.706 83.1282 171.435 83.4924 169.101 83.8667C143.957 87.8988 111.424 93.1158 71.6463 74.9626C54.5633 67.1666 43.538 58.1614 36.9089 48.5845C30.2814 39.01 28.0342 28.8441 28.5424 18.7017C29.5597 -1.60177 41.6169 -21.7952 51.6883 -36.884L51.1851 -37.1777ZM15.8919 24.6541C16.9172 4.19317 29.0562 -16.1092 39.1255 -31.1947L39.6287 -30.901C29.5572 -15.8122 17.5001 4.38123 16.4828 24.6847C15.9746 34.8271 18.2218 44.993 24.8493 54.5675C31.4784 64.1445 42.5037 73.1496 59.5867 80.9456C99.3647 99.0988 131.897 93.8818 157.042 89.8497L157.047 89.8488C159.379 89.4748 161.648 89.111 163.853 88.777C176.821 86.8128 187.664 85.8639 196.235 90.0452C204.829 94.2376 211.051 103.536 214.941 121.825L214.361 121.928C210.481 103.686 204.311 94.6043 195.964 90.5325C187.595 86.4494 176.949 87.3521 163.953 89.3205C161.755 89.6535 159.492 90.0165 157.164 90.3899L157.149 90.3923L157.143 90.3933C131.993 94.4277 99.2869 99.6744 59.3302 81.4396C42.1763 73.6112 31.0555 64.5459 24.3529 54.8628C17.6487 45.1775 15.3788 34.8939 15.8919 24.6541ZM27.4424 -24.7582C17.3732 -9.67274 5.23409 10.6296 4.20885 31.0905C3.69577 41.3304 5.96565 51.6139 12.6698 61.2993C19.3724 70.9823 30.4933 80.0477 47.6472 87.8761C87.6038 106.111 120.31 100.864 145.46 96.8297L145.461 96.8295C147.796 96.455 150.066 96.0909 152.27 95.757C165.266 93.7886 175.912 92.8859 184.281 96.9689C192.628 101.041 198.798 110.123 202.678 128.364L203.258 128.262C199.368 109.972 193.146 100.674 184.552 96.4816C175.981 92.3004 165.138 93.2493 152.17 95.2134C149.964 95.5476 147.693 95.9117 145.359 96.286L145.358 96.2861C120.214 100.318 87.6816 105.535 47.9036 87.382C30.8206 79.586 19.7953 70.5809 13.1662 61.004C6.53873 51.4294 4.29151 41.2636 4.79971 31.1212C5.81706 10.8177 17.8742 -9.37575 27.9456 -24.4645L27.4424 -24.7582Z" fill="url(#paint0_radial_1_252)" fill-opacity="0.58" shape-rendering="crispEdges"/>
</g>
<defs>
<filter id="filter0_dd_1_252" x="0.13916" y="-188.882" width="345.744" height="325.246" filterUnits="userSpaceOnUse" color-interpolation-filters="sRGB">
<feFlood flood-opacity="0" result="BackgroundImageFix"/>
<feColorMatrix in="SourceAlpha" type="matrix" values="0 0 0 0 0 0 0 0 0 0 0 0 0 0 0 0 0 0 127 0" result="hardAlpha"/>
<feOffset dy="4"/>
<feGaussianBlur stdDeviation="2"/>
<feComposite in2="hardAlpha" operator="out"/>
<feColorMatrix type="matrix" values="0 0 0 0 0 0 0 0 0 0 0 0 0 0 0 0 0 0 0.25 0"/>
<feBlend mode="normal" in2="BackgroundImageFix" result="effect1_dropShadow_1_252"/>
<feColorMatrix in="SourceAlpha" type="matrix" values="0 0 0 0 0 0 0 0 0 0 0 0 0 0 0 0 0 0 127 0" result="hardAlpha"/>
<feOffset dy="4"/>
<feGaussianBlur stdDeviation="2"/>
<feComposite in2="hardAlpha" operator="out"/>
<feColorMatrix type="matrix" values="0 0 0 0 0 0 0 0 0 0 0 0 0 0 0 0 0 0 0.25 0"/>
<feBlend mode="normal" in2="effect1_dropShadow_1_252" result="effect2_dropShadow_1_252"/>
<feBlend mode="normal" in="SourceGraphic" in2="effect2_dropShadow_1_252" result="shape"/>
</filter>
<radialGradient id="paint0_radial_1_252" cx="0" cy="0" r="1" gradientUnits="userSpaceOnUse" gradientTransform="translate(150.375 11.4073) rotate(33.312) scale(155.973 157.648)">
<stop stop-color="white"/>
<stop offset="1" stop-color="#1E1E1E" stop-opacity="0"/>
<stop offset="1" stop-color="#0E0E35" stop-opacity="0"/>
<stop offset="1" stop-color="white" stop-opacity="0"/>
</radialGradient>
</defs>
</svg>
